<?xml version="1.0" encoding="utf-8"?>
<!-- Generator: Adobe Illustrator 23.0.4, SVG Export Plug-In . SVG Version: 6.00 Build 0)  -->
<svg version="1.1" id="Layer_1" xmlns="http://www.w3.org/2000/svg" xmlns:xlink="http://www.w3.org/1999/xlink" x="0px" y="0px"
	 viewBox="0 0 200 30" style="enable-background:new 0 0 200 30;" xml:space="preserve">
<style type="text/css">
	.st0{fill:#FFFFFF;}
</style>
<g>
	<path class="st0" d="M10.51,23.82l-1.26,3.46H0.95L11.28,2.81h8.31l9.95,24.47h-8.62l-1.22-3.46H10.51z M15.19,10.87l-2.58,7.15
		h5.1L15.19,10.87z"/>
	<path class="st0" d="M43.31,2.81c5.9,0,9.7,2.44,9.7,6.18c0,2.41-1.61,4.47-4.12,5.24c2.93,0.66,4.85,3.11,4.85,6.18
		c0,4.19-3.87,6.88-9.84,6.88H30.92V2.81H43.31z M38.99,12.23h3.87c1.12,0,1.85-0.7,1.85-1.78c0-1.05-0.73-1.71-1.85-1.71h-3.87
		V12.23z M38.99,21.34h3.87c1.5,0,2.48-0.77,2.48-1.95c0-1.08-0.98-1.78-2.48-1.78h-3.87V21.34z"/>
	<path class="st0" d="M77.45,5.36l-2.93,6.14c-2.48-1.36-6.28-2.86-8.41-2.86c-0.91,0-1.5,0.28-1.5,1.01
		c0,3.07,12.67,1.15,12.67,10.02c0,5.44-4.78,7.85-10.3,7.85c-4.26,0-9-1.43-12.25-3.91l3-6.07c2.51,2.09,6.84,3.8,9.32,3.8
		c1.19,0,1.95-0.38,1.95-1.26c0-3.18-12.67-1.08-12.67-9.67c0-4.89,4.12-7.96,10.47-7.96C70.68,2.46,74.69,3.61,77.45,5.36z"/>
	<path class="st0" d="M92.84,9.19v18.08h-8.1V9.19h-6.95V2.81h22.02v6.39H92.84z"/>
	<path class="st0" d="M112.87,20.92h-3.04v6.35h-8.1V2.81h11.83c6.63,0,10.44,3.18,10.44,8.76c0,3.56-1.36,6.21-3.87,7.75l4.82,7.96
		h-9.14L112.87,20.92z M113.57,14.78c1.75,0,2.76-1.08,2.76-2.97c0-1.81-1.01-2.86-2.76-2.86h-3.73v5.83H113.57z"/>
	<path class="st0" d="M134.5,23.82l-1.26,3.46h-8.31l10.33-24.47h8.31l9.95,24.47h-8.62l-1.22-3.46H134.5z M139.18,10.87l-2.58,7.15
		h5.1L139.18,10.87z"/>
	<path class="st0" d="M176.59,7.03l-4.68,5.55c-1.47-1.99-3.66-3.28-5.55-3.28c-2.93,0-5.06,2.34-5.06,5.58
		c0,3.28,2.13,5.65,5.06,5.65c1.75,0,3.94-1.08,5.55-2.79l4.68,4.99c-2.72,2.97-6.88,4.89-10.65,4.89c-7.5,0-12.95-5.34-12.95-12.63
		c0-7.19,5.58-12.42,13.26-12.42C170,2.56,174.08,4.31,176.59,7.03z"/>
	<path class="st0" d="M191.7,9.19v18.08h-8.1V9.19h-6.95V2.81h22.02v6.39H191.7z"/>
</g>
</svg>
